<mxfile host="65bd71144e" pages="2">
    <diagram name="Página-1" id="R-Q9Ke4eZ67HMNihkkIw">
        <mxGraphModel dx="660" dy="563" grid="1" gridSize="10" guides="1" tooltips="1" connect="1" arrows="1" fold="1" page="1" pageScale="1" pageWidth="850" pageHeight="1100" math="0" shadow="0">
            <root>
                <mxCell id="0"/>
                <mxCell id="1" parent="0"/>
                <mxCell id="VCt5FXydv9lcFM3rAvpy-61" style="edgeStyle=orthogonalEdgeStyle;rounded=0;orthogonalLoop=1;jettySize=auto;html=1;" parent="1" source="VCt5FXydv9lcFM3rAvpy-2" target="VCt5FXydv9lcFM3rAvpy-6" edge="1">
                    <mxGeometry relative="1" as="geometry">
                        <Array as="points">
                            <mxPoint x="660" y="290"/>
                            <mxPoint x="550" y="290"/>
                        </Array>
                    </mxGeometry>
                </mxCell>
                <mxCell id="VCt5FXydv9lcFM3rAvpy-2" value="Jugador" style="swimlane;fontStyle=1;align=center;verticalAlign=top;childLayout=stackLayout;horizontal=1;startSize=26;horizontalStack=0;resizeParent=1;resizeParentMax=0;resizeLast=0;collapsible=1;marginBottom=0;whiteSpace=wrap;html=1;" parent="1" vertex="1">
                    <mxGeometry x="490" y="310" width="320" height="300" as="geometry">
                        <mxRectangle x="320" y="40" width="100" height="30" as="alternateBounds"/>
                    </mxGeometry>
                </mxCell>
                <mxCell id="VCt5FXydv9lcFM3rAvpy-3" value="- idComprador: int&lt;div&gt;- biblioteca: ArrayList&amp;lt;Juego&amp;gt;&lt;div&gt;- wishlist: ArrayList&amp;lt;Juego&amp;gt;&lt;/div&gt;&lt;/div&gt;&lt;div&gt;- carrito: ArrayList&amp;lt;Juego&amp;gt;&lt;/div&gt;&lt;div&gt;- amistades: ArrayList&amp;lt;Jugadores&amp;gt;&lt;/div&gt;&lt;div&gt;- solicitudes: ArrayList&amp;lt;Jugadores&amp;gt;&lt;/div&gt;&lt;div&gt;&lt;br&gt;&lt;/div&gt;&lt;div&gt;&lt;br&gt;&lt;/div&gt;" style="text;strokeColor=none;fillColor=none;align=left;verticalAlign=top;spacingLeft=4;spacingRight=4;overflow=hidden;rotatable=0;points=[[0,0.5],[1,0.5]];portConstraint=eastwest;whiteSpace=wrap;html=1;" parent="VCt5FXydv9lcFM3rAvpy-2" vertex="1">
                    <mxGeometry y="26" width="320" height="104" as="geometry"/>
                </mxCell>
                <mxCell id="VCt5FXydv9lcFM3rAvpy-4" value="" style="line;strokeWidth=1;fillColor=none;align=left;verticalAlign=middle;spacingTop=-1;spacingLeft=3;spacingRight=3;rotatable=0;labelPosition=right;points=[];portConstraint=eastwest;strokeColor=inherit;" parent="VCt5FXydv9lcFM3rAvpy-2" vertex="1">
                    <mxGeometry y="130" width="320" height="8" as="geometry"/>
                </mxCell>
                <mxCell id="VCt5FXydv9lcFM3rAvpy-5" value="+ agregarWishlist&lt;span style=&quot;background-color: transparent; color: light-dark(rgb(0, 0, 0), rgb(255, 255, 255));&quot;&gt;(Juego producto)&lt;/span&gt;&lt;div&gt;&lt;div&gt;+ eliminarWishlist(Juego producto)&lt;/div&gt;&lt;div&gt;+ comprar(Juego producto)&lt;/div&gt;&lt;div&gt;+ historialCompras(): ArrayList&amp;lt;Juego&amp;gt;&lt;/div&gt;&lt;div&gt;+ enviarSolicitudAmistad(Jugador comprador): boolean&lt;/div&gt;&lt;div&gt;+ obtenerSolicitudesPendientes(): ArrayList&amp;lt;Jugador&amp;gt;&lt;/div&gt;&lt;div&gt;+ eliminarAmistad(Jugador comprador)&lt;/div&gt;&lt;div&gt;+ consultaAmigo(Jugador comprador)&lt;/div&gt;&lt;/div&gt;&lt;div&gt;+ aceptarSolicitudes()&lt;/div&gt;&lt;div&gt;+ denegarSolicitudes()&lt;/div&gt;&lt;div&gt;&lt;br&gt;&lt;/div&gt;" style="text;strokeColor=none;fillColor=none;align=left;verticalAlign=top;spacingLeft=4;spacingRight=4;overflow=hidden;rotatable=0;points=[[0,0.5],[1,0.5]];portConstraint=eastwest;whiteSpace=wrap;html=1;" parent="VCt5FXydv9lcFM3rAvpy-2" vertex="1">
                    <mxGeometry y="138" width="320" height="162" as="geometry"/>
                </mxCell>
                <mxCell id="VCt5FXydv9lcFM3rAvpy-60" style="edgeStyle=orthogonalEdgeStyle;rounded=0;orthogonalLoop=1;jettySize=auto;html=1;exitX=1;exitY=0.5;exitDx=0;exitDy=0;" parent="VCt5FXydv9lcFM3rAvpy-2" source="VCt5FXydv9lcFM3rAvpy-5" target="VCt5FXydv9lcFM3rAvpy-5" edge="1">
                    <mxGeometry relative="1" as="geometry"/>
                </mxCell>
                <mxCell id="VCt5FXydv9lcFM3rAvpy-6" value="Usuario&lt;br&gt;&lt;div&gt;&lt;br&gt;&lt;/div&gt;" style="swimlane;fontStyle=1;align=center;verticalAlign=top;childLayout=stackLayout;horizontal=1;startSize=26;horizontalStack=0;resizeParent=1;resizeParentMax=0;resizeLast=0;collapsible=1;marginBottom=0;whiteSpace=wrap;html=1;" parent="1" vertex="1">
                    <mxGeometry x="160" y="10" width="490" height="260" as="geometry">
                        <mxRectangle x="350" y="280" width="90" height="40" as="alternateBounds"/>
                    </mxGeometry>
                </mxCell>
                <mxCell id="VCt5FXydv9lcFM3rAvpy-7" value="# idUsuario: int&amp;nbsp;&lt;div&gt;# nombre: String&lt;div&gt;# apellido: String&lt;/div&gt;&lt;div&gt;# correo: String&lt;/div&gt;&lt;div&gt;# pais: String&lt;/div&gt;&lt;div&gt;# contraseña: String&lt;/div&gt;&lt;div&gt;# avatar: String&lt;/div&gt;&lt;div&gt;# activo: boolean&lt;/div&gt;&lt;div&gt;&lt;div&gt;&lt;br&gt;&lt;/div&gt;&lt;/div&gt;&lt;/div&gt;" style="text;strokeColor=none;fillColor=none;align=left;verticalAlign=top;spacingLeft=4;spacingRight=4;overflow=hidden;rotatable=0;points=[[0,0.5],[1,0.5]];portConstraint=eastwest;whiteSpace=wrap;html=1;" parent="VCt5FXydv9lcFM3rAvpy-6" vertex="1">
                    <mxGeometry y="26" width="490" height="144" as="geometry"/>
                </mxCell>
                <mxCell id="VCt5FXydv9lcFM3rAvpy-8" value="" style="line;strokeWidth=1;fillColor=none;align=left;verticalAlign=middle;spacingTop=-1;spacingLeft=3;spacingRight=3;rotatable=0;labelPosition=right;points=[];portConstraint=eastwest;strokeColor=inherit;" parent="VCt5FXydv9lcFM3rAvpy-6" vertex="1">
                    <mxGeometry y="170" width="490" height="8" as="geometry"/>
                </mxCell>
                <mxCell id="VCt5FXydv9lcFM3rAvpy-9" value="+iniciarSesion(String correo, String contraseña)&lt;div&gt;+cerrarSesion()&lt;/div&gt;&lt;div&gt;+actualizarPerfil(String nombre, String apellido, String correo, String pais, String avatar)&lt;/div&gt;&lt;div&gt;+actualizarContraseña(String nuevaContraseña)&lt;/div&gt;" style="text;strokeColor=none;fillColor=none;align=left;verticalAlign=top;spacingLeft=4;spacingRight=4;overflow=hidden;rotatable=0;points=[[0,0.5],[1,0.5]];portConstraint=eastwest;whiteSpace=wrap;html=1;" parent="VCt5FXydv9lcFM3rAvpy-6" vertex="1">
                    <mxGeometry y="178" width="490" height="82" as="geometry"/>
                </mxCell>
                <mxCell id="VCt5FXydv9lcFM3rAvpy-63" style="edgeStyle=orthogonalEdgeStyle;rounded=0;orthogonalLoop=1;jettySize=auto;html=1;" parent="1" source="VCt5FXydv9lcFM3rAvpy-40" target="VCt5FXydv9lcFM3rAvpy-6" edge="1">
                    <mxGeometry relative="1" as="geometry">
                        <Array as="points">
                            <mxPoint x="460" y="640"/>
                        </Array>
                    </mxGeometry>
                </mxCell>
                <mxCell id="VCt5FXydv9lcFM3rAvpy-40" value="Publisher" style="swimlane;fontStyle=1;align=center;verticalAlign=top;childLayout=stackLayout;horizontal=1;startSize=26;horizontalStack=0;resizeParent=1;resizeParentMax=0;resizeLast=0;collapsible=1;marginBottom=0;whiteSpace=wrap;html=1;" parent="1" vertex="1">
                    <mxGeometry x="500" y="620" width="260" height="120" as="geometry"/>
                </mxCell>
                <mxCell id="VCt5FXydv9lcFM3rAvpy-41" value="- idPublisher: int&lt;div&gt;- productosPublicados: ArrayList&amp;lt;Juego&amp;gt;&lt;/div&gt;&lt;div&gt;&lt;div&gt;&amp;nbsp;&lt;/div&gt;&lt;/div&gt;" style="text;strokeColor=none;fillColor=none;align=left;verticalAlign=top;spacingLeft=4;spacingRight=4;overflow=hidden;rotatable=0;points=[[0,0.5],[1,0.5]];portConstraint=eastwest;whiteSpace=wrap;html=1;" parent="VCt5FXydv9lcFM3rAvpy-40" vertex="1">
                    <mxGeometry y="26" width="260" height="44" as="geometry"/>
                </mxCell>
                <mxCell id="VCt5FXydv9lcFM3rAvpy-42" value="" style="line;strokeWidth=1;fillColor=none;align=left;verticalAlign=middle;spacingTop=-1;spacingLeft=3;spacingRight=3;rotatable=0;labelPosition=right;points=[];portConstraint=eastwest;strokeColor=inherit;" parent="VCt5FXydv9lcFM3rAvpy-40" vertex="1">
                    <mxGeometry y="70" width="260" height="8" as="geometry"/>
                </mxCell>
                <mxCell id="VCt5FXydv9lcFM3rAvpy-43" value="+ publicarProducto(Juego producto)&lt;div&gt;+ actualizarProducto(Juego producto)&lt;/div&gt;" style="text;strokeColor=none;fillColor=none;align=left;verticalAlign=top;spacingLeft=4;spacingRight=4;overflow=hidden;rotatable=0;points=[[0,0.5],[1,0.5]];portConstraint=eastwest;whiteSpace=wrap;html=1;" parent="VCt5FXydv9lcFM3rAvpy-40" vertex="1">
                    <mxGeometry y="78" width="260" height="42" as="geometry"/>
                </mxCell>
                <mxCell id="VCt5FXydv9lcFM3rAvpy-64" style="edgeStyle=orthogonalEdgeStyle;rounded=0;orthogonalLoop=1;jettySize=auto;html=1;" parent="1" source="VCt5FXydv9lcFM3rAvpy-49" target="VCt5FXydv9lcFM3rAvpy-6" edge="1">
                    <mxGeometry relative="1" as="geometry">
                        <Array as="points">
                            <mxPoint x="405" y="795"/>
                        </Array>
                    </mxGeometry>
                </mxCell>
                <mxCell id="VCt5FXydv9lcFM3rAvpy-49" value="Administrador" style="swimlane;fontStyle=1;align=center;verticalAlign=top;childLayout=stackLayout;horizontal=1;startSize=26;horizontalStack=0;resizeParent=1;resizeParentMax=0;resizeLast=0;collapsible=1;marginBottom=0;whiteSpace=wrap;html=1;" parent="1" vertex="1">
                    <mxGeometry x="500" y="770" width="220" height="130" as="geometry"/>
                </mxCell>
                <mxCell id="VCt5FXydv9lcFM3rAvpy-50" value="- idAdministrador: int" style="text;strokeColor=none;fillColor=none;align=left;verticalAlign=top;spacingLeft=4;spacingRight=4;overflow=hidden;rotatable=0;points=[[0,0.5],[1,0.5]];portConstraint=eastwest;whiteSpace=wrap;html=1;" parent="VCt5FXydv9lcFM3rAvpy-49" vertex="1">
                    <mxGeometry y="26" width="220" height="26" as="geometry"/>
                </mxCell>
                <mxCell id="VCt5FXydv9lcFM3rAvpy-51" value="" style="line;strokeWidth=1;fillColor=none;align=left;verticalAlign=middle;spacingTop=-1;spacingLeft=3;spacingRight=3;rotatable=0;labelPosition=right;points=[];portConstraint=eastwest;strokeColor=inherit;" parent="VCt5FXydv9lcFM3rAvpy-49" vertex="1">
                    <mxGeometry y="52" width="220" height="8" as="geometry"/>
                </mxCell>
                <mxCell id="VCt5FXydv9lcFM3rAvpy-52" value="+ bloquearUsuario(Usuario usuario)&lt;div&gt;+ denegarProducto(Juego producto)&lt;/div&gt;&lt;div&gt;+ aprobarProducto(Juego producto)&lt;/div&gt;&lt;div&gt;+ borrarProducto(Juego&lt;span style=&quot;background-color: transparent; color: light-dark(rgb(0, 0, 0), rgb(255, 255, 255));&quot;&gt;&amp;nbsp;producto)&lt;/span&gt;&lt;/div&gt;&lt;div&gt;&lt;br&gt;&lt;/div&gt;" style="text;strokeColor=none;fillColor=none;align=left;verticalAlign=top;spacingLeft=4;spacingRight=4;overflow=hidden;rotatable=0;points=[[0,0.5],[1,0.5]];portConstraint=eastwest;whiteSpace=wrap;html=1;" parent="VCt5FXydv9lcFM3rAvpy-49" vertex="1">
                    <mxGeometry y="60" width="220" height="70" as="geometry"/>
                </mxCell>
            </root>
        </mxGraphModel>
    </diagram>
    <diagram id="pMXuaI-_06Oo56rJ7vQz" name="Página-2">
        <mxGraphModel dx="660" dy="563" grid="1" gridSize="10" guides="1" tooltips="1" connect="1" arrows="1" fold="1" page="1" pageScale="1" pageWidth="850" pageHeight="1100" math="0" shadow="0">
            <root>
                <mxCell id="0"/>
                <mxCell id="1" parent="0"/>
                <mxCell id="4F-_qlt1HGNPKUC1CO0p-1" value="Juegos" style="swimlane;fontStyle=1;align=center;verticalAlign=top;childLayout=stackLayout;horizontal=1;startSize=26;horizontalStack=0;resizeParent=1;resizeParentMax=0;resizeLast=0;collapsible=1;marginBottom=0;whiteSpace=wrap;html=1;" parent="1" vertex="1">
                    <mxGeometry x="40" y="40" width="200" height="234" as="geometry"/>
                </mxCell>
                <mxCell id="4F-_qlt1HGNPKUC1CO0p-2" value="- idJuego: int&amp;nbsp;&lt;div&gt;- nombreJuego: String&lt;div&gt;- banner: String&lt;/div&gt;&lt;/div&gt;&lt;div&gt;- fotos: ArrayList&amp;lt;String&amp;gt;&lt;/div&gt;&lt;div&gt;- publisher: Publisher&lt;/div&gt;&lt;div&gt;- precio: double&lt;/div&gt;&lt;div&gt;- reviews: int&lt;/div&gt;&lt;div&gt;- reviewsPositivas: int&lt;/div&gt;&lt;div&gt;- reviewsNegativas: int&lt;/div&gt;&lt;div&gt;- descripcion: String&lt;/div&gt;&lt;div&gt;- etiquetas: ArrayList&amp;lt;Tag&amp;gt;&lt;/div&gt;" style="text;strokeColor=none;fillColor=none;align=left;verticalAlign=top;spacingLeft=4;spacingRight=4;overflow=hidden;rotatable=0;points=[[0,0.5],[1,0.5]];portConstraint=eastwest;whiteSpace=wrap;html=1;" parent="4F-_qlt1HGNPKUC1CO0p-1" vertex="1">
                    <mxGeometry y="26" width="200" height="174" as="geometry"/>
                </mxCell>
                <mxCell id="4F-_qlt1HGNPKUC1CO0p-3" value="" style="line;strokeWidth=1;fillColor=none;align=left;verticalAlign=middle;spacingTop=-1;spacingLeft=3;spacingRight=3;rotatable=0;labelPosition=right;points=[];portConstraint=eastwest;strokeColor=inherit;" parent="4F-_qlt1HGNPKUC1CO0p-1" vertex="1">
                    <mxGeometry y="200" width="200" height="8" as="geometry"/>
                </mxCell>
                <mxCell id="4F-_qlt1HGNPKUC1CO0p-4" value="+&amp;nbsp;" style="text;strokeColor=none;fillColor=none;align=left;verticalAlign=top;spacingLeft=4;spacingRight=4;overflow=hidden;rotatable=0;points=[[0,0.5],[1,0.5]];portConstraint=eastwest;whiteSpace=wrap;html=1;" parent="4F-_qlt1HGNPKUC1CO0p-1" vertex="1">
                    <mxGeometry y="208" width="200" height="26" as="geometry"/>
                </mxCell>
                <mxCell id="2ftWunniH2nncUAssGU_-1" value="&lt;p style=&quot;margin:0px;margin-top:4px;text-align:center;&quot;&gt;&lt;i&gt;&amp;lt;&amp;lt;Interface&amp;gt;&amp;gt;&lt;/i&gt;&lt;br&gt;&lt;b&gt;SystemRequirements&lt;/b&gt;&lt;/p&gt;&lt;hr size=&quot;1&quot; style=&quot;border-style:solid;&quot;&gt;&lt;p style=&quot;margin:0px;margin-left:4px;&quot;&gt;&lt;br&gt;&lt;/p&gt;&lt;hr size=&quot;1&quot; style=&quot;border-style:solid;&quot;&gt;&lt;p style=&quot;margin:0px;margin-left:4px;&quot;&gt;+ getPlatform(): String&lt;br&gt;+ getFormattedText(): String&lt;/p&gt;" style="verticalAlign=top;align=left;overflow=fill;html=1;whiteSpace=wrap;" parent="1" vertex="1">
                    <mxGeometry x="660" y="110" width="160" height="120" as="geometry"/>
                </mxCell>
                <mxCell id="2ftWunniH2nncUAssGU_-2" value="Linux" style="swimlane;fontStyle=1;align=center;verticalAlign=top;childLayout=stackLayout;horizontal=1;startSize=26;horizontalStack=0;resizeParent=1;resizeParentMax=0;resizeLast=0;collapsible=1;marginBottom=0;whiteSpace=wrap;html=1;" parent="1" vertex="1">
                    <mxGeometry x="410" y="210" width="160" height="148" as="geometry"/>
                </mxCell>
                <mxCell id="2ftWunniH2nncUAssGU_-3" value="- distro: String&lt;div&gt;- kernelVersion: String&lt;/div&gt;&lt;div&gt;- processor: String&lt;/div&gt;&lt;div&gt;- memory: String&lt;/div&gt;&lt;div&gt;- graphics: String&lt;/div&gt;&lt;div&gt;- storage: String&lt;/div&gt;&lt;div&gt;- additionalNotes: String&lt;/div&gt;" style="text;strokeColor=none;fillColor=none;align=left;verticalAlign=top;spacingLeft=4;spacingRight=4;overflow=hidden;rotatable=0;points=[[0,0.5],[1,0.5]];portConstraint=eastwest;whiteSpace=wrap;html=1;" parent="2ftWunniH2nncUAssGU_-2" vertex="1">
                    <mxGeometry y="26" width="160" height="114" as="geometry"/>
                </mxCell>
                <mxCell id="2ftWunniH2nncUAssGU_-4" value="" style="line;strokeWidth=1;fillColor=none;align=left;verticalAlign=middle;spacingTop=-1;spacingLeft=3;spacingRight=3;rotatable=0;labelPosition=right;points=[];portConstraint=eastwest;strokeColor=inherit;" parent="2ftWunniH2nncUAssGU_-2" vertex="1">
                    <mxGeometry y="140" width="160" height="8" as="geometry"/>
                </mxCell>
                <mxCell id="QkiDiJm-KpU0c-hSakmv-7" style="edgeStyle=orthogonalEdgeStyle;rounded=0;orthogonalLoop=1;jettySize=auto;html=1;exitX=1;exitY=0;exitDx=0;exitDy=0;" parent="1" source="2ftWunniH2nncUAssGU_-7" target="2ftWunniH2nncUAssGU_-1" edge="1">
                    <mxGeometry relative="1" as="geometry">
                        <mxPoint x="580" y="380" as="sourcePoint"/>
                        <Array as="points">
                            <mxPoint x="780" y="380"/>
                        </Array>
                    </mxGeometry>
                </mxCell>
                <mxCell id="QkiDiJm-KpU0c-hSakmv-8" style="edgeStyle=orthogonalEdgeStyle;rounded=0;orthogonalLoop=1;jettySize=auto;html=1;" parent="1" source="2ftWunniH2nncUAssGU_-7" target="QkiDiJm-KpU0c-hSakmv-1" edge="1">
                    <mxGeometry relative="1" as="geometry"/>
                </mxCell>
                <mxCell id="2ftWunniH2nncUAssGU_-7" value="Windows" style="swimlane;fontStyle=1;align=center;verticalAlign=top;childLayout=stackLayout;horizontal=1;startSize=26;horizontalStack=0;resizeParent=1;resizeParentMax=0;resizeLast=0;collapsible=1;marginBottom=0;whiteSpace=wrap;html=1;" parent="1" vertex="1">
                    <mxGeometry x="410" y="380" width="160" height="128" as="geometry"/>
                </mxCell>
                <mxCell id="2ftWunniH2nncUAssGU_-8" value="- os: String&lt;div&gt;- processor: String&lt;/div&gt;&lt;div&gt;- memory: String&lt;/div&gt;&lt;div&gt;- graphics: String&lt;/div&gt;&lt;div&gt;- storage: String&lt;/div&gt;&lt;div&gt;- additionalNotes: String&lt;/div&gt;" style="text;strokeColor=none;fillColor=none;align=left;verticalAlign=top;spacingLeft=4;spacingRight=4;overflow=hidden;rotatable=0;points=[[0,0.5],[1,0.5]];portConstraint=eastwest;whiteSpace=wrap;html=1;" parent="2ftWunniH2nncUAssGU_-7" vertex="1">
                    <mxGeometry y="26" width="160" height="94" as="geometry"/>
                </mxCell>
                <mxCell id="2ftWunniH2nncUAssGU_-9" value="" style="line;strokeWidth=1;fillColor=none;align=left;verticalAlign=middle;spacingTop=-1;spacingLeft=3;spacingRight=3;rotatable=0;labelPosition=right;points=[];portConstraint=eastwest;strokeColor=inherit;" parent="2ftWunniH2nncUAssGU_-7" vertex="1">
                    <mxGeometry y="120" width="160" height="8" as="geometry"/>
                </mxCell>
                <mxCell id="QkiDiJm-KpU0c-hSakmv-10" style="edgeStyle=orthogonalEdgeStyle;rounded=0;orthogonalLoop=1;jettySize=auto;html=1;" parent="1" source="2ftWunniH2nncUAssGU_-12" target="QkiDiJm-KpU0c-hSakmv-1" edge="1">
                    <mxGeometry relative="1" as="geometry">
                        <Array as="points">
                            <mxPoint x="750" y="604"/>
                        </Array>
                    </mxGeometry>
                </mxCell>
                <mxCell id="2ftWunniH2nncUAssGU_-12" value="Mac" style="swimlane;fontStyle=1;align=center;verticalAlign=top;childLayout=stackLayout;horizontal=1;startSize=26;horizontalStack=0;resizeParent=1;resizeParentMax=0;resizeLast=0;collapsible=1;marginBottom=0;whiteSpace=wrap;html=1;" parent="1" vertex="1">
                    <mxGeometry x="410" y="530" width="160" height="148" as="geometry"/>
                </mxCell>
                <mxCell id="2ftWunniH2nncUAssGU_-13" value="- macOsVersion: String&lt;div&gt;- architecture: String&lt;/div&gt;&lt;div&gt;- processor: String&lt;/div&gt;&lt;div&gt;- memory: String&lt;/div&gt;&lt;div&gt;- graphics: String&lt;/div&gt;&lt;div&gt;- storage: String&lt;/div&gt;&lt;div&gt;- additionalNotes: String&lt;/div&gt;" style="text;strokeColor=none;fillColor=none;align=left;verticalAlign=top;spacingLeft=4;spacingRight=4;overflow=hidden;rotatable=0;points=[[0,0.5],[1,0.5]];portConstraint=eastwest;whiteSpace=wrap;html=1;" parent="2ftWunniH2nncUAssGU_-12" vertex="1">
                    <mxGeometry y="26" width="160" height="114" as="geometry"/>
                </mxCell>
                <mxCell id="2ftWunniH2nncUAssGU_-14" value="" style="line;strokeWidth=1;fillColor=none;align=left;verticalAlign=middle;spacingTop=-1;spacingLeft=3;spacingRight=3;rotatable=0;labelPosition=right;points=[];portConstraint=eastwest;strokeColor=inherit;" parent="2ftWunniH2nncUAssGU_-12" vertex="1">
                    <mxGeometry y="140" width="160" height="8" as="geometry"/>
                </mxCell>
                <mxCell id="2ftWunniH2nncUAssGU_-17" value="" style="endArrow=diamondThin;endFill=0;endSize=24;html=1;rounded=0;" parent="1" source="2ftWunniH2nncUAssGU_-2" target="4F-_qlt1HGNPKUC1CO0p-1" edge="1">
                    <mxGeometry width="160" relative="1" as="geometry">
                        <mxPoint x="230" y="260" as="sourcePoint"/>
                        <mxPoint x="390" y="260" as="targetPoint"/>
                        <Array as="points">
                            <mxPoint x="270" y="380"/>
                            <mxPoint x="140" y="370"/>
                        </Array>
                    </mxGeometry>
                </mxCell>
                <mxCell id="4S3pl4sZNhn3DwW5We6J-1" value="" style="endArrow=diamondThin;endFill=0;endSize=24;html=1;rounded=0;entryX=0.299;entryY=1.109;entryDx=0;entryDy=0;entryPerimeter=0;" parent="1" source="2ftWunniH2nncUAssGU_-7" target="4F-_qlt1HGNPKUC1CO0p-4" edge="1">
                    <mxGeometry width="160" relative="1" as="geometry">
                        <mxPoint x="140" y="440" as="sourcePoint"/>
                        <mxPoint x="100" y="260" as="targetPoint"/>
                        <Array as="points">
                            <mxPoint x="100" y="440"/>
                            <mxPoint x="100" y="320"/>
                        </Array>
                    </mxGeometry>
                </mxCell>
                <mxCell id="4S3pl4sZNhn3DwW5We6J-2" value="" style="endArrow=diamondThin;endFill=0;endSize=24;html=1;rounded=0;entryX=0.1;entryY=1;entryDx=0;entryDy=0;entryPerimeter=0;" parent="1" source="2ftWunniH2nncUAssGU_-12" target="4F-_qlt1HGNPKUC1CO0p-4" edge="1">
                    <mxGeometry width="160" relative="1" as="geometry">
                        <mxPoint x="370" y="443" as="sourcePoint"/>
                        <mxPoint x="64" y="194" as="targetPoint"/>
                        <Array as="points">
                            <mxPoint x="200" y="600"/>
                            <mxPoint x="60" y="600"/>
                            <mxPoint x="60" y="440"/>
                            <mxPoint x="60" y="320"/>
                        </Array>
                    </mxGeometry>
                </mxCell>
                <mxCell id="4S3pl4sZNhn3DwW5We6J-3" value="Clasificacion" style="swimlane;fontStyle=1;align=center;verticalAlign=top;childLayout=stackLayout;horizontal=1;startSize=26;horizontalStack=0;resizeParent=1;resizeParentMax=0;resizeLast=0;collapsible=1;marginBottom=0;whiteSpace=wrap;html=1;" parent="1" vertex="1">
                    <mxGeometry x="350" y="40" width="160" height="88" as="geometry"/>
                </mxCell>
                <mxCell id="4S3pl4sZNhn3DwW5We6J-4" value="- name: String&lt;div&gt;- iconPath: String&lt;/div&gt;&lt;div&gt;- abbreviation: String&lt;/div&gt;" style="text;strokeColor=none;fillColor=none;align=left;verticalAlign=top;spacingLeft=4;spacingRight=4;overflow=hidden;rotatable=0;points=[[0,0.5],[1,0.5]];portConstraint=eastwest;whiteSpace=wrap;html=1;" parent="4S3pl4sZNhn3DwW5We6J-3" vertex="1">
                    <mxGeometry y="26" width="160" height="54" as="geometry"/>
                </mxCell>
                <mxCell id="4S3pl4sZNhn3DwW5We6J-5" value="" style="line;strokeWidth=1;fillColor=none;align=left;verticalAlign=middle;spacingTop=-1;spacingLeft=3;spacingRight=3;rotatable=0;labelPosition=right;points=[];portConstraint=eastwest;strokeColor=inherit;" parent="4S3pl4sZNhn3DwW5We6J-3" vertex="1">
                    <mxGeometry y="80" width="160" height="8" as="geometry"/>
                </mxCell>
                <mxCell id="4S3pl4sZNhn3DwW5We6J-7" value="" style="endArrow=diamondThin;endFill=0;endSize=24;html=1;rounded=0;entryX=0.986;entryY=0.114;entryDx=0;entryDy=0;entryPerimeter=0;" parent="1" source="4S3pl4sZNhn3DwW5We6J-3" target="4F-_qlt1HGNPKUC1CO0p-2" edge="1">
                    <mxGeometry width="160" relative="1" as="geometry">
                        <mxPoint x="290" y="200" as="sourcePoint"/>
                        <mxPoint x="450" y="200" as="targetPoint"/>
                    </mxGeometry>
                </mxCell>
                <mxCell id="4S3pl4sZNhn3DwW5We6J-8" value="Tag" style="swimlane;fontStyle=1;align=center;verticalAlign=top;childLayout=stackLayout;horizontal=1;startSize=26;horizontalStack=0;resizeParent=1;resizeParentMax=0;resizeLast=0;collapsible=1;marginBottom=0;whiteSpace=wrap;html=1;" parent="1" vertex="1">
                    <mxGeometry x="350" y="140" width="160" height="60" as="geometry"/>
                </mxCell>
                <mxCell id="4S3pl4sZNhn3DwW5We6J-9" value="+ tags: ArrayList&amp;lt;String&amp;gt;" style="text;strokeColor=none;fillColor=none;align=left;verticalAlign=top;spacingLeft=4;spacingRight=4;overflow=hidden;rotatable=0;points=[[0,0.5],[1,0.5]];portConstraint=eastwest;whiteSpace=wrap;html=1;" parent="4S3pl4sZNhn3DwW5We6J-8" vertex="1">
                    <mxGeometry y="26" width="160" height="26" as="geometry"/>
                </mxCell>
                <mxCell id="4S3pl4sZNhn3DwW5We6J-10" value="" style="line;strokeWidth=1;fillColor=none;align=left;verticalAlign=middle;spacingTop=-1;spacingLeft=3;spacingRight=3;rotatable=0;labelPosition=right;points=[];portConstraint=eastwest;strokeColor=inherit;" parent="4S3pl4sZNhn3DwW5We6J-8" vertex="1">
                    <mxGeometry y="52" width="160" height="8" as="geometry"/>
                </mxCell>
                <mxCell id="QkiDiJm-KpU0c-hSakmv-1" value="Requisitos" style="swimlane;fontStyle=1;align=center;verticalAlign=top;childLayout=stackLayout;horizontal=1;startSize=26;horizontalStack=0;resizeParent=1;resizeParentMax=0;resizeLast=0;collapsible=1;marginBottom=0;whiteSpace=wrap;html=1;" parent="1" vertex="1">
                    <mxGeometry x="660" y="432" width="160" height="118" as="geometry"/>
                </mxCell>
                <mxCell id="QkiDiJm-KpU0c-hSakmv-2" value="# procesador: String&lt;div&gt;# memoria: String&lt;/div&gt;&lt;div&gt;# gráficos: String&lt;/div&gt;&lt;div&gt;# almacenamiento: String&lt;/div&gt;&lt;div&gt;# notasAdicionales: String&lt;/div&gt;" style="text;strokeColor=none;fillColor=none;align=left;verticalAlign=top;spacingLeft=4;spacingRight=4;overflow=hidden;rotatable=0;points=[[0,0.5],[1,0.5]];portConstraint=eastwest;whiteSpace=wrap;html=1;" parent="QkiDiJm-KpU0c-hSakmv-1" vertex="1">
                    <mxGeometry y="26" width="160" height="84" as="geometry"/>
                </mxCell>
                <mxCell id="QkiDiJm-KpU0c-hSakmv-3" value="" style="line;strokeWidth=1;fillColor=none;align=left;verticalAlign=middle;spacingTop=-1;spacingLeft=3;spacingRight=3;rotatable=0;labelPosition=right;points=[];portConstraint=eastwest;strokeColor=inherit;" parent="QkiDiJm-KpU0c-hSakmv-1" vertex="1">
                    <mxGeometry y="110" width="160" height="8" as="geometry"/>
                </mxCell>
                <mxCell id="QkiDiJm-KpU0c-hSakmv-5" style="edgeStyle=orthogonalEdgeStyle;rounded=0;orthogonalLoop=1;jettySize=auto;html=1;entryX=0.025;entryY=0.413;entryDx=0;entryDy=0;entryPerimeter=0;" parent="1" source="2ftWunniH2nncUAssGU_-3" target="2ftWunniH2nncUAssGU_-1" edge="1">
                    <mxGeometry relative="1" as="geometry">
                        <Array as="points">
                            <mxPoint x="620" y="270"/>
                            <mxPoint x="620" y="160"/>
                        </Array>
                    </mxGeometry>
                </mxCell>
                <mxCell id="QkiDiJm-KpU0c-hSakmv-6" style="edgeStyle=orthogonalEdgeStyle;rounded=0;orthogonalLoop=1;jettySize=auto;html=1;" parent="1" source="2ftWunniH2nncUAssGU_-3" target="QkiDiJm-KpU0c-hSakmv-1" edge="1">
                    <mxGeometry relative="1" as="geometry">
                        <Array as="points">
                            <mxPoint x="600" y="293"/>
                            <mxPoint x="600" y="400"/>
                            <mxPoint x="730" y="400"/>
                        </Array>
                    </mxGeometry>
                </mxCell>
                <mxCell id="QkiDiJm-KpU0c-hSakmv-9" style="edgeStyle=orthogonalEdgeStyle;rounded=0;orthogonalLoop=1;jettySize=auto;html=1;" parent="1" source="2ftWunniH2nncUAssGU_-13" target="2ftWunniH2nncUAssGU_-1" edge="1">
                    <mxGeometry relative="1" as="geometry">
                        <Array as="points">
                            <mxPoint x="620" y="613"/>
                            <mxPoint x="620" y="350"/>
                            <mxPoint x="710" y="350"/>
                        </Array>
                    </mxGeometry>
                </mxCell>
            </root>
        </mxGraphModel>
    </diagram>
</mxfile>